HIERARCHY
ROOT Hips
{
  OFFSET -30.7971 100.457 188.197
  CHANNELS 6 Xposition Yposition Zposition Zrotation Xrotation Yrotation
  JOINT RightUpLeg
  {
    OFFSET -8.9458 -8.66707 0.101652
    CHANNELS 3 Zrotation Xrotation Yrotation
    JOINT RightLeg
    {
      OFFSET 0 -44.4227 1.3727
      CHANNELS 3 Zrotation Xrotation Yrotation
      JOINT RightFoot
      {
        OFFSET 0.253549 -42.0924 -1.46059
        CHANNELS 3 Zrotation Xrotation Yrotation
        JOINT RightToes
        {
          OFFSET 0.04 -4.41509 8.4991
          CHANNELS 3 Zrotation Xrotation Yrotation
          End Site
          {
            OFFSET -0.08 -0.137448 9.77979
          }
        }
      }
    }
  }
  JOINT Spine
  {
    OFFSET 0 11.8905 0
    CHANNELS 3 Zrotation Xrotation Yrotation
    JOINT Spine1
    {
      OFFSET 0 25.6574 0.127663
      CHANNELS 3 Zrotation Xrotation Yrotation
      JOINT HEad
      {
        OFFSET 0 8.73416 0.011341
        CHANNELS 3 Zrotation Xrotation Yrotation
        End Site
        {
          OFFSET -0.29 12.7742 2.51395
        }
      }
      JOINT LeftShoulder1
      {
        OFFSET 8.99 -0.362252 -0.22
        CHANNELS 3 Zrotation Xrotation Yrotation
        JOINT LeftArm
        {
          OFFSET 10.2827 -0.00338 0.322123
          CHANNELS 3 Zrotation Xrotation Yrotation
          JOINT LeftForeArm
          {
            OFFSET 32.7669 0.099144 -1.42434
            CHANNELS 3 Zrotation Xrotation Yrotation
            JOINT LeftHand
            {
              OFFSET 27.5643 0.085362 1.02216
              CHANNELS 3 Zrotation Xrotation Yrotation
              End Site
              {
                OFFSET 16.7443 -0.6 1.50291
              }
            }
          }
        }
      }
      JOINT RightShoulder
      {
        OFFSET -8.99 -0.362252 -0.22
        CHANNELS 3 Zrotation Xrotation Yrotation
        JOINT RightArm
        {
          OFFSET -10.2827 -0.00338 0.322123
          CHANNELS 3 Zrotation Xrotation Yrotation
          JOINT RightForeArm
          {
            OFFSET -32.8971 0.099144 -1.42434
            CHANNELS 3 Zrotation Xrotation Yrotation
            JOINT RightHand
            {
              OFFSET -27.4921 0.085362 1.02216
              CHANNELS 3 Zrotation Xrotation Yrotation
              End Site
              {
                OFFSET -16.6312 -0.6 1.50291
              }
            }
          }
        }
      }
    }
  }
  JOINT LeftUpLeg
  {
    OFFSET 8.9458 -8.66707 0.101652
    CHANNELS 3 Zrotation Xrotation Yrotation
    JOINT LeftLeg
    {
      OFFSET 0 -44.4227 1.3727
      CHANNELS 3 Zrotation Xrotation Yrotation
      JOINT LeftFoot
      {
        OFFSET -0.253549 -42.0924 -1.46059
        CHANNELS 3 Zrotation Xrotation Yrotation
        JOINT LeftToes
        {
          OFFSET -0.04 -4.41509 8.4991
          CHANNELS 3 Zrotation Xrotation Yrotation
          End Site
          {
            OFFSET 0.08 -0.047448 9.77979
          }
        }
      }
    }
  }
}
MOTION
Frames:	12
Frame Time:	0.0166667
-34.7761 100.219 47.0877 4.68017 3.6254 -179.094 7.16734 -11.3374 -8.72909 -2.41614 4.70943 1.60259 -15.2873 9.25429 1.52025 12.1215 1.95165 1.36984 -1.72768 1.93628 1.25359 6.91313 -1.12177 -0.197674 4.71344 13.409 -4.3427 -6.21202e-017 3.97569e-016 -0 -90.6786 -22.9857 -4.60285 -19.3171 16.3762 -23.5846 0.368473 9.90896 -0.00117926 3.01294 -0.475891 -7.78779 70.6343 -29.7439 -8.24155 28.2687 12.71 4.47804 -0.369625 9.91382 0.00119886 2.09027 10.0202 13.766 4.73922 23.8141 8.80028 -5.21832 -2.98775 0.079279 -3.70226 -1.6005 -0.521428 
-34.4894 100.313 45.4281 5.20052 3.67223 -179.179 7.81435 -10.914 -9.19871 -2.45294 6.08683 2.03355 -15.3108 7.93423 1.34161 12.1417 2.34258 1.28812 -1.45247 1.93581 1.38209 7.67012 -1.45242 -0.182768 4.29338 13.634 -4.04366 -3.97569e-016 7.95139e-016 -3.97569e-016 -90.7417 -24.2508 -3.03283 -19.1565 16.2414 -23.0761 0.368473 9.90896 -0.00117926 2.88601 -0.477955 -7.85212 71.046 -29.8759 -7.07376 27.8888 12.5435 3.74807 -0.369625 9.91382 0.00119886 2.9159 9.78668 13.6783 5.34073 25.8442 9.0993 -5.41291 -1.20255 0.163411 -3.72469 -1.76685 -0.493943 
-34.1774 100.397 43.8109 5.6889 3.71793 -179.219 8.48918 -10.4613 -9.79965 -2.59006 7.39736 2.51248 -15.3169 6.27578 1.11595 11.96 2.6543 1.20325 -1.17342 1.96281 1.47321 8.27563 -1.69135 -0.170559 4.0514 13.7461 -3.74547 1.98785e-016 0 -0 -90.6807 -25.4691 -1.53045 -18.9365 16.0747 -22.4496 0.368473 9.90896 -0.00117926 2.82038 -0.494966 -8.02858 71.7266 -29.887 -5.62771 27.4706 12.3928 3.06762 -0.369625 9.91382 0.00119886 3.84268 9.11856 13.5683 5.97756 28.4288 9.66153 -5.53924 1.07308 0.270914 -3.1147 -2.28332 -0.183436 
-33.8292 100.459 42.2654 6.13037 3.80583 -179.176 9.14851 -9.77199 -10.0266 -2.66911 8.23682 2.68822 -15.2546 4.97463 0.934702 12.4657 2.94916 1.1725 -0.849338 2.06342 1.50589 8.61631 -1.79511 -0.166208 4.04578 13.7345 -3.40915 -2.75869e-033 -3.97569e-016 -3.97569e-016 -90.456 -26.5347 -0.236518 -18.6356 15.8495 -21.603 0.368473 9.90896 -0.00117926 2.90343 -0.527852 -8.29352 72.6536 -29.6507 -3.99407 27.1032 12.3096 2.64568 -0.369625 9.91382 0.00119886 4.87936 8.01628 13.5336 6.82148 31.4793 10.7641 -5.61767 4.47419 0.445815 -0.597334 -3.37133 0.845191 
-33.4827 100.486 40.791 6.55269 3.86781 -179.003 9.74889 -9.09249 -10.0303 -2.6428 8.95831 2.49777 -15.2227 3.73214 0.761491 13.0079 3.16389 1.16194 -0.449923 2.18282 1.49784 8.83994 -1.78905 -0.168305 4.15576 13.5514 -3.16937 2.23633e-016 -3.97569e-016 -0 -90.1668 -27.349 0.841508 -18.35 15.6055 -20.6032 0.368473 9.90896 -0.00117926 2.97354 -0.563631 -8.59266 73.7081 -29.1454 -2.32953 26.8628 12.3162 2.5888 -0.369625 9.91382 0.00119886 5.92887 6.40171 13.5517 7.76107 34.9436 11.5655 -5.39906 8.2609 0.594675 2.03709 -4.67699 1.97892 
-33.174 100.433 39.4095 7.02708 3.83327 -178.584 10.2435 -8.6655 -9.69925 -2.34562 9.86319 1.57681 -15.3514 2.45324 0.589107 13.1025 3.23524 1.1522 0.151072 2.29445 1.44471 9.08083 -1.69292 -0.177456 4.28861 13.1625 -3.21753 -4.47266e-016 3.97569e-016 -3.97569e-016 -89.8994 -27.7258 1.64434 -18.1587 15.3778 -19.4886 0.368473 9.90896 -0.00117926 2.85229 -0.592546 -8.90936 74.8135 -28.2793 -0.839302 26.871 12.4413 3.07303 -0.369625 9.91382 0.00119886 6.96406 4.09513 13.7181 9.13846 38.9023 10.6716 -4.39097 12.3864 0.614659 3.10033 -6.21936 2.7799 
-32.8977 100.373 38.0832 7.41179 3.75252 -178.081 10.5906 -8.29024 -9.30996 -1.944 10.6957 0.473032 -15.5016 1.22282 0.422963 13.1403 3.22558 1.15666 0.707387 2.35973 1.39153 9.26645 -1.48004 -0.192774 4.40676 12.5176 -3.34223 -2.23633e-016 -7.95139e-016 3.97569e-016 -89.6898 -27.83 2.16464 -18.1013 15.1592 -18.2392 0.368473 9.90896 -0.00117926 2.6789 -0.606092 -9.10702 75.812 -27.1781 0.528177 27.0624 12.7094 4.1029 -0.369625 9.91382 0.00119886 7.80528 1.40702 13.803 10.9256 43.0363 9.36407 -3.23122 15.4078 0.564141 3.34472 -7.10957 3.14711 
-32.671 100.375 36.7807 7.55726 3.63787 -177.614 10.6984 -7.85067 -9.09912 -1.57493 11.2731 -0.372461 -15.5578 0.0852888 0.263195 13.4809 3.14456 1.19856 0.957067 2.30609 1.39814 9.37511 -1.12644 -0.213483 4.41498 11.4692 -3.38312 -8.19987e-016 -1.98785e-016 7.95139e-016 -89.6026 -27.7137 2.35142 -18.2752 14.956 -16.7999 0.368473 9.90896 -0.00117926 2.54496 -0.593329 -9.05114 76.4856 -25.8823 1.72972 27.4541 13.1974 5.93968 -0.369625 9.91382 0.00119886 8.13422 -1.49075 13.6054 12.8318 47.1826 8.79271 -2.53753 15.2302 0.455223 2.84263 -5.94482 2.62526 
-32.4615 100.405 35.5052 7.55552 3.53367 -177.189 10.6987 -7.34264 -9.07339 -1.31645 11.6894 -0.979 -15.5756 -0.932942 0.118362 13.7337 3.08707 1.22905 1.0721 2.20899 1.4158 9.38915 -0.643743 -0.239873 4.40662 10.2738 -3.38331 6.83322e-016 0 -0 -89.5637 -27.522 2.30973 -18.589 14.7616 -15.3141 0.368473 9.90896 -0.00117926 2.41523 -0.551893 -8.71877 77.009 -24.5566 2.88295 27.8547 13.7451 8.00432 -0.369625 9.91382 0.00119886 8.16082 -4.40689 13.1077 14.4742 50.8825 8.8074 -1.95139 13.7613 0.324141 1.93558 -4.28817 1.82894 
-32.2352 100.45 34.2524 7.45031 3.48965 -176.845 10.7248 -6.72863 -9.42805 -1.35628 11.9831 -1.12372 -15.5365 -1.77283 0.000356167 13.376 3.2062 1.17738 1.14445 2.11061 1.41277 9.27467 -0.00850018 -0.274444 4.47028 9.11901 -3.33562 2.73329e-016 9.93923e-017 1.59028e-015 -89.5186 -27.3952 2.08917 -18.9958 14.5777 -13.8957 0.368473 9.90896 -0.00117926 2.33737 -0.468053 -7.9664 77.404 -23.3993 4.05096 28.138 14.2552 9.81369 -0.369625 9.91382 0.00119886 7.98841 -7.08907 12.0866 15.2305 53.5534 9.92411 -1.20542 12.2855 0.204899 0.775619 -3.38106 1.21842 
-32.0143 100.511 33.0138 7.22951 3.50208 -176.599 10.7004 -5.99468 -9.83294 -1.49192 12.1426 -1.09225 -15.5426 -2.48794 -0.100173 13.1625 3.33705 1.13244 1.15208 2.0382 1.39791 9.05924 0.698083 -0.309829 4.53331 8.06364 -3.22848 4.71337e-016 -7.45443e-017 7.95139e-016 -89.455 -27.3929 1.81272 -19.4724 14.4037 -12.5762 0.368473 9.90896 -0.00117926 2.14824 -0.363832 -7.02129 77.9424 -22.3335 5.36601 28.2606 14.6801 11.3112 -0.369625 9.91382 0.00119886 7.56303 -9.55077 10.8783 15.2826 55.3546 11.4658 -0.620689 10.5781 0.113983 -0.184244 -2.79867 0.770758 
-31.806 100.596 31.7815 6.86671 3.59339 -176.516 10.5544 -5.08645 -9.91804 -1.53911 12.1378 -1.15297 -15.7398 -3.10458 -0.187333 13.9682 3.32863 1.18795 1.07362 2.05989 1.36917 8.73749 1.39599 -0.338503 4.56184 7.22794 -3.04026 3.97569e-016 1.98785e-016 7.95139e-016 -89.3197 -27.6387 1.61477 -20.0198 14.2313 -11.372 0.368473 9.90896 -0.00117926 1.66438 -0.252708 -6.03879 78.9676 -21.3596 7.04268 28.1136 14.9256 12.1889 -0.369625 9.91382 0.00119886 6.92406 -11.6839 9.72833 14.8678 56.2812 12.6382 -0.499598 8.82786 0.0907346 -0.173927 -2.50109 0.685005 
